# xmcd
#
# Track frame offsets:
#	150
#	11595
#	24910
#	36392
#	50125
#	62490
#	75072
#	88092
#	101237
#	115695
#	129087
#	142715
#	155937
#	169682
#	183695
#	197165
#	211032
#	225880
#	239445
#	252967
#	266600
#	280280
#	295280
#	309145
#	320685
#	334692
#
# Disc length: 4647 seconds
#
# Revision: 1
# Processed by: cddbd v1.5.2PL0 Copyright (c) Steve Scherf et al.
# Submitted via: EasyCDDAExtractor 12.0.0.1
#
DISCID=6312251a
DTITLE=Unlce Dave Macon - Keep My Skillet Good And Greasy - Disc 01
DYEAR=2004
DGENRE=Country
TTITLE0=Keep Skillet Good And Greasy
TTITLE1=Hill Billie Blues
TTITLE2=Old Maid's Last Hope (A Burglar Song)
TTITLE3=All I've Got's Gone
TTITLE4=The Fox Chase
TTITLE5=Papa's Billy Goat
TTITLE6=The Little Log Cabin In The Lane
TTITLE7=(She Was Always) Chewing Gum
TTITLE8=Jonah And The Whale
TTITLE9=I'm Going Away To Leave You, Love
TTITLE10=Love Somebody
TTITLE11=Soldier's Joy
TTITLE12=Bile Them Cabbage Down
TTITLE13=Down By The River
TTITLE14=Run, Nigger, Run
TTITLE15=Old Dan Tucker
TTITLE16=Station Will Be Changed After A While
TTITLE17=Rooster Crow Medley
TTITLE18=Going Across The Sea
TTITLE19=Just From Tennessee
TTITLE20=Watermelon Smilin' On The Vine
TTITLE21=All-Go-Hungry Hash House
TTITLE22=From Jerusalem To Jericho
TTITLE23=I Tickled Nancy
TTITLE24=Arkansas Traveler
TTITLE25=Girl I Left Behind Me
EXTD=
EXTT0=
EXTT1=
EXTT2=
EXTT3=
EXTT4=
EXTT5=
EXTT6=
EXTT7=
EXTT8=
EXTT9=
EXTT10=
EXTT11=
EXTT12=
EXTT13=
EXTT14=
EXTT15=
EXTT16=
EXTT17=
EXTT18=
EXTT19=
EXTT20=
EXTT21=
EXTT22=
EXTT23=
EXTT24=
EXTT25=
PLAYORDER=
